<svg width="545.7" height="77.8" viewBox="0 0 545.7 77.8" xmlns="http://www.w3.org/2000/svg"><g id="svgGroup" stroke-linecap="round" fill-rule="evenodd" font-size="9pt" stroke="#ffffff" stroke-width="0.25mm" fill="#ffffff" style="stroke:#ffffff;stroke-width:0.25mm;fill:#ffffff"><path d="M 43.1 9.2 L 40.8 16.9 A 57.072 57.072 0 0 0 34.962 14.836 Q 32.016 13.984 29.373 13.637 A 26.734 26.734 0 0 0 25.9 13.4 A 27.055 27.055 0 0 0 21.89 13.678 Q 17.813 14.291 15.2 16.25 A 9.12 9.12 0 0 0 12.423 19.513 Q 11.497 21.388 11.497 23.75 A 12.25 12.25 0 0 0 11.5 24 Q 11.5 27.8 13.45 30.1 Q 15.4 32.4 18.25 33.7 Q 21.037 34.971 25.688 36.434 A 127.702 127.702 0 0 0 25.9 36.5 Q 32.3 38.5 36.1 40.5 A 17.159 17.159 0 0 1 41.02 44.434 A 21.666 21.666 0 0 1 42.65 46.55 A 14.518 14.518 0 0 1 44.578 50.805 Q 45.117 52.722 45.303 55.006 A 30.818 30.818 0 0 1 45.4 57.5 A 23.462 23.462 0 0 1 44.626 63.7 A 16.694 16.694 0 0 1 38.85 72.55 A 22.74 22.74 0 0 1 30.245 76.759 Q 27.002 77.605 23.19 77.763 A 43.065 43.065 0 0 1 21.4 77.8 Q 15.654 77.8 11.197 76.677 A 29.184 29.184 0 0 1 10.35 76.45 Q 5.6 75.1 0 72.8 L 2.7 64.9 A 20.77 20.77 0 0 1 3.088 65.051 Q 4.119 65.463 6.8 66.6 Q 10.1 68 13.75 68.85 Q 17.4 69.7 21 69.7 A 22.382 22.382 0 0 0 25.275 69.316 Q 29.041 68.583 31.6 66.45 Q 35.5 63.2 35.5 57.5 A 12.702 12.702 0 0 0 35.231 54.812 Q 34.847 53.038 33.914 51.686 A 7.773 7.773 0 0 0 33.55 51.2 Q 31.6 48.8 28.6 47.5 A 45.425 45.425 0 0 0 26.53 46.668 Q 24.077 45.746 20.709 44.733 A 140.815 140.815 0 0 0 20.6 44.7 Q 16.474 43.456 13.442 42.254 A 45.124 45.124 0 0 1 10.55 41 A 15.861 15.861 0 0 1 5.362 36.967 A 19.592 19.592 0 0 1 4.15 35.4 Q 1.94 32.231 1.573 27.253 A 27.945 27.945 0 0 1 1.5 25.2 Q 1.5 16.3 7.55 10.8 Q 12.256 6.522 20.562 5.571 A 44.374 44.374 0 0 1 25.6 5.3 A 39.443 39.443 0 0 1 34.898 6.466 A 54.349 54.349 0 0 1 43.1 9.2 Z M 375.6 14.6 L 369 20 A 18.303 18.303 0 0 0 355.656 12.617 A 25.137 25.137 0 0 0 353.2 12.5 A 25.513 25.513 0 0 0 346.44 13.345 A 17.952 17.952 0 0 0 336.85 19.65 Q 332.534 25.112 331.515 34.337 A 55.299 55.299 0 0 0 331.2 40.4 A 53.583 53.583 0 0 0 331.743 48.3 Q 332.343 52.317 333.607 55.563 A 22.35 22.35 0 0 0 337.05 61.6 Q 342.9 68.8 354.3 68.8 A 30.124 30.124 0 0 0 362.161 67.697 Q 365.557 66.78 369.164 65.1 A 55.5 55.5 0 0 0 371.2 64.1 L 374 71.6 A 24.796 24.796 0 0 1 370.114 73.63 Q 367.675 74.656 364.7 75.4 Q 359.1 76.8 352.9 76.8 A 40.281 40.281 0 0 1 343.259 75.714 A 26.58 26.58 0 0 1 329.25 67.4 Q 322.462 59.666 321.259 46.381 A 66.362 66.362 0 0 1 321 40.4 A 60.189 60.189 0 0 1 321.806 30.215 Q 323.578 19.909 329.25 13.55 A 26.567 26.567 0 0 1 342.878 5.495 Q 347.247 4.379 352.455 4.305 A 52.4 52.4 0 0 1 353.2 4.3 A 32.938 32.938 0 0 1 362.768 5.616 A 24.72 24.72 0 0 1 375.6 14.6 Z M 478.2 0 L 487.6 0 L 487.6 75.8 L 480 75.8 L 478.7 69.5 Q 473 76.7 463.5 76.7 A 27.633 27.633 0 0 1 456.564 75.878 A 19.157 19.157 0 0 1 446.85 70.05 Q 441.83 64.439 441.045 54.735 A 46.377 46.377 0 0 1 440.9 51 Q 440.9 40.15 445.887 33.297 A 22.48 22.48 0 0 1 447.95 30.85 Q 455 23.6 467.3 23.6 A 43.772 43.772 0 0 1 476.111 24.524 A 50.304 50.304 0 0 1 478.2 25 L 478.2 0 Z M 226.8 44.8 L 234.4 44.8 L 234.4 42.8 A 24.442 24.442 0 0 0 234.213 39.661 Q 233.765 36.213 232.243 34.264 A 6.619 6.619 0 0 0 231.75 33.7 A 7.587 7.587 0 0 0 229.112 32.004 Q 226.603 31 222.7 31 A 38.371 38.371 0 0 0 219.054 31.165 Q 217.1 31.352 215.4 31.75 Q 212.346 32.466 207.653 34.502 A 96.368 96.368 0 0 0 207.2 34.7 L 204.4 28.2 A 46.77 46.77 0 0 1 214.158 24.645 A 37.776 37.776 0 0 1 222.9 23.6 A 40.541 40.541 0 0 1 228.565 23.968 Q 231.444 24.375 233.751 25.235 A 14.993 14.993 0 0 1 238.8 28.25 Q 243.8 32.9 243.8 43 L 243.8 75.9 L 236.5 75.9 A 8.016 8.016 0 0 1 236.455 75.71 Q 236.353 75.249 236.138 74.144 A 208.838 208.838 0 0 1 236.1 73.95 A 54.763 54.763 0 0 0 235.931 73.116 Q 235.65 71.775 235.2 69.9 A 25.091 25.091 0 0 1 227.792 75.127 A 22.549 22.549 0 0 1 218.4 77.1 Q 211.317 77.1 206.857 73.63 A 14.732 14.732 0 0 1 206.1 73 A 13.522 13.522 0 0 1 201.601 63.987 A 18.968 18.968 0 0 1 201.5 62 A 16.205 16.205 0 0 1 202.548 56.053 Q 204.13 52.007 208.1 49.3 A 22.736 22.736 0 0 1 214.37 46.386 Q 219.616 44.8 226.8 44.8 Z M 140.5 49.8 L 140.5 51.4 L 104.6 51.4 A 32.17 32.17 0 0 0 105.086 56.437 Q 105.581 59.142 106.567 61.301 A 14.591 14.591 0 0 0 108.7 64.7 A 12.646 12.646 0 0 0 116.038 68.931 A 19.172 19.172 0 0 0 119.9 69.3 Q 123.9 69.3 127.6 68.35 Q 131.3 67.4 135.8 65.4 L 138.5 71.8 Q 133.4 74.4 128.8 75.55 Q 124.2 76.7 119.4 76.7 A 30.875 30.875 0 0 1 112.039 75.873 A 20.735 20.735 0 0 1 101.4 69.7 Q 95.725 63.493 95.082 52.883 A 46.023 46.023 0 0 1 95 50.1 A 40.587 40.587 0 0 1 95.678 42.44 Q 96.536 37.983 98.476 34.499 A 21.248 21.248 0 0 1 101.3 30.55 A 20.526 20.526 0 0 1 112.401 24.283 A 31.062 31.062 0 0 1 119.1 23.6 Q 126.797 23.6 131.595 26.732 A 15.065 15.065 0 0 1 135.45 30.35 A 22.416 22.416 0 0 1 138.806 37.086 Q 139.786 40.184 140.199 43.95 A 53.734 53.734 0 0 1 140.5 49.8 Z M 545.7 49.8 L 545.7 51.4 L 509.8 51.4 A 32.17 32.17 0 0 0 510.286 56.437 Q 510.781 59.142 511.767 61.301 A 14.591 14.591 0 0 0 513.9 64.7 A 12.646 12.646 0 0 0 521.238 68.931 A 19.172 19.172 0 0 0 525.1 69.3 Q 529.1 69.3 532.8 68.35 Q 536.5 67.4 541 65.4 L 543.7 71.8 Q 538.6 74.4 534 75.55 Q 529.4 76.7 524.6 76.7 A 30.875 30.875 0 0 1 517.239 75.873 A 20.735 20.735 0 0 1 506.6 69.7 Q 500.925 63.493 500.282 52.883 A 46.023 46.023 0 0 1 500.2 50.1 A 40.587 40.587 0 0 1 500.878 42.44 Q 501.736 37.983 503.676 34.499 A 21.248 21.248 0 0 1 506.5 30.55 A 20.526 20.526 0 0 1 517.601 24.283 A 31.062 31.062 0 0 1 524.3 23.6 Q 531.997 23.6 536.795 26.732 A 15.065 15.065 0 0 1 540.65 30.35 A 22.416 22.416 0 0 1 544.006 37.086 Q 544.986 40.184 545.399 43.95 A 53.734 53.734 0 0 1 545.7 49.8 Z M 62 31.7 L 53 31.7 L 53 24.5 L 62.8 24.5 L 64.4 9.5 L 71.4 9.5 L 71.4 24.5 L 87.1 24.5 L 87.1 31.7 L 71.4 31.7 L 71.4 60.1 A 15.392 15.392 0 0 0 71.728 63.431 Q 72.779 68.152 77.203 68.871 A 10.591 10.591 0 0 0 78.9 69 Q 80.999 69 83.784 68.315 A 39.32 39.32 0 0 0 86.3 67.6 L 87.9 74.2 A 30.542 30.542 0 0 1 81.974 76.028 A 24.862 24.862 0 0 1 77.2 76.5 A 18.337 18.337 0 0 1 72.161 75.84 A 14.151 14.151 0 0 1 66.25 72.5 A 12.646 12.646 0 0 1 62.873 66.959 Q 62.232 64.918 62.062 62.445 A 26.876 26.876 0 0 1 62 60.6 L 62 31.7 Z M 152.9 75.9 L 152.9 0 L 162.1 0 L 162.1 75.9 L 152.9 75.9 Z M 179.3 75.9 L 179.3 0 L 188.5 0 L 188.5 75.9 L 179.3 75.9 Z M 260 24.5 L 267.6 24.5 L 268.7 31.6 A 20.215 20.215 0 0 1 272.917 26.964 A 15.679 15.679 0 0 1 282.9 23.6 Q 285.077 23.6 287.857 24.204 A 39.008 39.008 0 0 1 289.5 24.6 L 288 33 A 58.355 58.355 0 0 0 285.732 32.517 Q 283.025 32 281.3 32 Q 277.797 32 275.303 33.148 A 9.866 9.866 0 0 0 274.35 33.65 A 11.038 11.038 0 0 0 272.049 35.524 Q 271.123 36.497 270.271 37.776 A 22.681 22.681 0 0 0 269.4 39.2 L 269.4 75.9 L 260 75.9 L 260 24.5 Z M 383.617 42.322 A 39.634 39.634 0 0 0 382.9 50.1 A 46.399 46.399 0 0 0 382.952 52.317 Q 383.156 56.578 384.159 60.152 A 23.394 23.394 0 0 0 389.25 69.65 A 20.533 20.533 0 0 0 399.908 75.872 A 31.047 31.047 0 0 0 407.3 76.7 Q 419 76.7 425.35 69.65 Q 429.542 64.996 430.967 57.967 A 39.625 39.625 0 0 0 431.7 50.1 A 46.111 46.111 0 0 0 431.638 47.676 Q 431.071 36.906 425.35 30.6 A 20.569 20.569 0 0 0 414.673 24.418 A 31.278 31.278 0 0 0 407.3 23.6 A 31.541 31.541 0 0 0 400.198 24.354 A 20.638 20.638 0 0 0 389.25 30.6 A 21.505 21.505 0 0 0 386.682 34.082 Q 384.546 37.68 383.617 42.322 Z M 478.2 58.5 L 478.2 32.5 A 37.562 37.562 0 0 0 468.816 31.023 A 42.49 42.49 0 0 0 467.4 31 A 19.099 19.099 0 0 0 462.005 31.723 A 14.369 14.369 0 0 0 455 36.25 Q 451.203 40.68 450.61 48.135 A 36.134 36.134 0 0 0 450.5 51 A 35.119 35.119 0 0 0 450.847 56.104 Q 451.228 58.694 452.029 60.806 A 15.24 15.24 0 0 0 454.05 64.55 A 11.474 11.474 0 0 0 462.473 69.221 A 16.338 16.338 0 0 0 464.1 69.3 Q 469.3 69.3 473.05 66.45 Q 476.8 63.6 478.2 58.5 Z M 392.5 50.1 Q 392.5 59.5 396.35 64.4 A 12.525 12.525 0 0 0 404.955 69.155 A 18.359 18.359 0 0 0 407.3 69.3 A 16.408 16.408 0 0 0 411.983 68.667 A 12.212 12.212 0 0 0 418.25 64.4 A 15.926 15.926 0 0 0 420.813 59.465 Q 421.537 57.254 421.854 54.567 A 38.23 38.23 0 0 0 422.1 50.1 A 36.723 36.723 0 0 0 421.743 44.794 Q 420.927 39.222 418.25 35.85 Q 414.4 31 407.3 31 A 16.584 16.584 0 0 0 402.64 31.62 A 12.219 12.219 0 0 0 396.35 35.85 Q 393.474 39.473 392.746 45.636 A 38.147 38.147 0 0 0 392.5 50.1 Z M 234.4 62.8 L 234.4 51.8 L 227.4 51.8 A 43.452 43.452 0 0 0 223.108 51.998 Q 218.033 52.503 215.05 54.3 Q 211.313 56.551 210.941 60.831 A 11.206 11.206 0 0 0 210.9 61.8 A 9.619 9.619 0 0 0 211.184 64.206 A 6.566 6.566 0 0 0 213.3 67.65 A 7.795 7.795 0 0 0 216.011 69.121 Q 217.809 69.7 220.2 69.7 A 17.572 17.572 0 0 0 227.762 67.964 A 20.266 20.266 0 0 0 228 67.85 Q 231.8 66 234.4 62.8 Z M 105 44.4 L 130.6 44.4 Q 129.908 37.583 127.167 34.329 A 9.32 9.32 0 0 0 127.1 34.25 A 9.088 9.088 0 0 0 121.906 31.272 A 13.741 13.741 0 0 0 119.1 31 Q 113.2 31 109.65 34.4 Q 106.603 37.318 105.361 42.594 A 27.887 27.887 0 0 0 105 44.4 Z M 510.2 44.4 L 535.8 44.4 Q 535.108 37.583 532.367 34.329 A 9.32 9.32 0 0 0 532.3 34.25 A 9.088 9.088 0 0 0 527.106 31.272 A 13.741 13.741 0 0 0 524.3 31 Q 518.4 31 514.85 34.4 Q 511.803 37.318 510.561 42.594 A 27.887 27.887 0 0 0 510.2 44.4 Z" vector-effect="non-scaling-stroke"/></g></svg>